<svg width="24" height="24" viewBox="0 0 24 24" fill="none" xmlns="http://www.w3.org/2000/svg">
<path d="M2.54546 0H21.4701C21.8221 0.0696634 22.1618 0.190906 22.4782 0.359802C23.3183 0.847934 23.8092 1.58193 24 2.52701V21.443C23.9712 21.5557 23.9448 21.6697 23.9148 21.7824C23.5836 23.0057 22.411 23.97 21.1833 23.9868C19.7012 24.0024 18.2178 23.9868 16.7345 23.9952C16.5377 23.9952 16.4824 23.922 16.4824 23.7349C16.4872 21.1444 16.4872 18.5546 16.4824 15.9656C16.4824 15.7665 16.5569 15.7114 16.7441 15.7138C17.3141 15.7222 17.8842 15.7138 18.453 15.721C18.537 15.733 18.6225 15.7136 18.6929 15.6664C18.7634 15.6193 18.8139 15.5477 18.8347 15.4655C19.2175 14.4856 19.6136 13.5094 20.0036 12.5319C20.2136 12.0078 20.2124 12.0078 19.6436 12.0078H16.7429C16.6133 12.0078 16.4909 12.0078 16.4921 11.8231C16.4921 10.8408 16.4921 9.85738 16.4993 8.87512C16.4993 8.55729 16.6901 8.3594 16.9973 8.27545C17.1413 8.23972 17.2894 8.22358 17.4377 8.22748C18.0378 8.22748 18.6379 8.22748 19.2379 8.22748C19.4167 8.22748 19.49 8.16991 19.49 7.98761C19.4835 6.9122 19.4835 5.83599 19.49 4.75898C19.49 4.59227 19.4359 4.51911 19.2595 4.51911C18.2226 4.5407 17.1845 4.48074 16.1476 4.55629C15.0455 4.62904 14.0131 5.12088 13.2625 5.93074C12.4116 6.82185 12.042 7.90725 12.0336 9.12458C12.0336 9.95213 12.0336 10.7785 12.0336 11.606C12.0336 12.0042 12.0336 12.0042 11.6448 12.0042C10.8635 12.0042 10.0846 12.0042 9.30333 12.0042C9.09811 12.0042 9.0309 12.0726 9.0321 12.2752C9.0393 13.3299 9.0393 14.3833 9.0321 15.4355C9.0321 15.649 9.09931 15.7222 9.31533 15.7198C10.1122 15.7102 10.9079 15.7198 11.7048 15.7198C12.0324 15.7198 12.0336 15.7198 12.0336 16.0364C12.0336 18.5874 12.0336 21.1384 12.0336 23.6894C12.0336 23.916 11.9796 24 11.7348 24C8.79928 23.9916 5.86499 24 2.92949 23.9916C2.15556 23.9764 1.41779 23.6614 0.871889 23.1129C0.325987 22.5645 0.0146567 21.8255 0.00360036 21.052C-0.00120012 15.0137 -0.00120012 8.97706 0.00360036 2.94198C0.00329987 2.43991 0.13801 1.94699 0.393639 1.51477C0.873687 0.670431 1.60936 0.190695 2.54546 0Z" fill="#252630"/>
</svg>
