<svg width="16" height="16" viewBox="0 0 16 16" fill="none" xmlns="http://www.w3.org/2000/svg">
<path d="M1.69697 -0.00317383H14.3134C14.5481 0.0432684 14.7745 0.124097 14.9855 0.236694C15.5456 0.562115 15.8728 1.05145 16 1.6815V14.2922C15.9808 14.3673 15.9632 14.4433 15.9432 14.5184C15.7224 15.334 14.9407 15.9768 14.1222 15.988C13.1341 15.9984 12.1452 15.988 11.1563 15.9936C11.0251 15.9936 10.9883 15.9449 10.9883 15.8201C10.9915 14.0931 10.9915 12.3666 10.9883 10.6406C10.9883 10.5078 11.0379 10.4711 11.1627 10.4727C11.5428 10.4783 11.9228 10.4727 12.302 10.4775C12.358 10.4855 12.415 10.4726 12.462 10.4411C12.5089 10.4097 12.5426 10.3619 12.5565 10.3072C12.8117 9.65391 13.0757 9.00307 13.3357 8.35143C13.4757 8.00202 13.4749 8.00202 13.0957 8.00202H11.1619C11.0755 8.00202 10.9939 8.00202 10.9947 7.87889C10.9947 7.22405 10.9947 6.56841 10.9995 5.91357C10.9995 5.70169 11.1267 5.56976 11.3315 5.51379C11.4275 5.48997 11.5263 5.47921 11.6252 5.48181C12.0252 5.48181 12.4252 5.48181 12.8253 5.48181C12.9445 5.48181 12.9933 5.44343 12.9933 5.3219C12.989 4.60496 12.989 3.88749 12.9933 3.16948C12.9933 3.05834 12.9573 3.00957 12.8397 3.00957C12.1484 3.02396 11.4563 2.98398 10.7651 3.03436C10.0303 3.08285 9.34204 3.41074 8.84168 3.95065C8.27443 4.54472 8.028 5.26833 8.0224 6.07988C8.0224 6.63158 8.0224 7.18247 8.0224 7.73417C8.0224 7.99962 8.0224 7.99962 7.76318 7.99962C7.24232 7.99962 6.72307 7.99962 6.20222 7.99962C6.06541 7.99962 6.0206 8.0452 6.0214 8.18033C6.0262 8.8834 6.0262 9.58569 6.0214 10.2872C6.0214 10.4295 6.06621 10.4783 6.21022 10.4767C6.74147 10.4703 7.27193 10.4767 7.80318 10.4767C8.0216 10.4767 8.0224 10.4767 8.0224 10.6877C8.0224 12.3884 8.0224 14.0891 8.0224 15.7897C8.0224 15.9409 7.9864 15.9968 7.82318 15.9968C5.86619 15.9912 3.90999 15.9968 1.953 15.9912C1.43704 15.9811 0.945194 15.7711 0.581259 15.4054C0.217325 15.0398 0.00977114 14.5472 0.00240024 14.0315C-0.00080008 10.006 -0.00080008 5.98153 0.00240024 1.95815C0.00219992 1.62343 0.0920067 1.29482 0.262426 1.00667C0.582458 0.44378 1.07291 0.123956 1.69697 -0.00317383Z" fill="white"/>
</svg>
