<svg width="16" height="16" viewBox="0 0 16 16" fill="none" xmlns="http://www.w3.org/2000/svg">
<path d="M16 2.02642V13.9536C15.9896 13.9992 15.9792 14.0448 15.9696 14.0904C15.6888 15.336 14.568 16.0104 13.5696 16.0032C9.84001 15.9848 6.10722 15.9968 2.37682 15.9968C1.74742 15.9932 1.14483 15.7416 0.69984 15.2964C0.254853 14.8513 0.0033876 14.2486 2.73934e-05 13.6192C2.73934e-05 9.86828 2.73934e-05 6.11735 2.73934e-05 2.36642C-0.00237219 1.87377 0.152934 1.39327 0.443227 0.995224C0.837626 0.442425 1.38083 0.123226 2.04322 -0.00317383H13.9704C14.3286 0.060453 14.6694 0.198935 14.9704 0.403225C15.2417 0.591391 15.4725 0.83195 15.6493 1.11072C15.8261 1.3895 15.9454 1.70085 16 2.02642ZM8.01121 14.0664H11.6472C11.8241 14.0673 12.0006 14.0512 12.1744 14.0184C13.3144 13.7944 14.0816 12.8528 14.0824 11.668C14.0824 9.21734 14.0824 6.76721 14.0824 4.31762C14.0823 4.15117 14.0665 3.9851 14.0352 3.82162C13.8128 2.68242 12.8704 1.91682 11.6856 1.91682C9.23548 1.91682 6.78535 1.91682 4.33522 1.91682C4.16875 1.91644 4.00263 1.93224 3.83922 1.96402C3.30145 2.06144 2.81534 2.34558 2.46657 2.76635C2.11781 3.18712 1.92878 3.71751 1.93282 4.26402C1.92536 6.74561 1.92536 9.22721 1.93282 11.7088C1.92623 12.2187 2.09073 12.7161 2.40002 13.1216C2.88002 13.7568 3.53602 14.0616 4.32722 14.0648C5.55522 14.0712 6.78322 14.0664 8.01121 14.0664Z" fill="white"/>
<path d="M8.00756 13.1545C6.76917 13.1545 5.53104 13.1545 4.29317 13.1545C3.45237 13.1545 2.84277 12.5473 2.84277 11.7105C2.84277 9.22887 2.84277 6.74728 2.84277 4.26568C2.84277 3.43848 3.45477 2.82568 4.28277 2.82568H11.7276C12.5572 2.82568 13.1676 3.43528 13.1676 4.26568C13.1676 6.75208 13.1676 9.23874 13.1676 11.7257C13.1717 11.9149 13.1375 12.1029 13.0669 12.2785C12.9964 12.4541 12.8909 12.6135 12.757 12.7472C12.6231 12.8809 12.4635 12.9861 12.2878 13.0564C12.1121 13.1266 11.9239 13.1605 11.7348 13.1561C10.4932 13.1561 9.25076 13.1555 8.00756 13.1545ZM11.2716 7.98247C11.2356 6.16408 9.82436 4.72888 8.00276 4.73128C7.14732 4.74468 6.33145 5.09392 5.73124 5.7036C5.13104 6.31328 4.79463 7.13453 4.79463 7.99007C4.79463 8.84562 5.13104 9.66686 5.73124 10.2765C6.33145 10.8862 7.14732 11.2355 8.00276 11.2489C9.82356 11.2513 11.242 9.81607 11.2716 7.98247ZM12.206 4.71688C12.2064 4.53444 12.1527 4.35596 12.0517 4.20405C11.9506 4.05214 11.8068 3.93365 11.6383 3.86357C11.4699 3.7935 11.2844 3.775 11.1054 3.81042C10.9265 3.84583 10.762 3.93358 10.633 4.06253C10.5039 4.19148 10.416 4.35584 10.3805 4.53478C10.3449 4.71373 10.3632 4.8992 10.4331 5.06771C10.5031 5.23623 10.6214 5.38019 10.7733 5.48137C10.9251 5.58255 11.1035 5.63639 11.286 5.63608C11.5283 5.63118 11.7593 5.53278 11.9308 5.36147C12.1023 5.19016 12.2008 4.9592 12.206 4.71688Z" fill="white"/>
<path d="M8.00773 5.63603C8.47376 5.63603 8.92931 5.77434 9.31667 6.03344C9.70404 6.29253 10.0058 6.66076 10.1837 7.09148C10.3617 7.52221 10.4078 7.99605 10.3162 8.45299C10.2247 8.90994 9.99955 9.32944 9.66941 9.65835C9.33926 9.98727 8.91892 10.2108 8.46163 10.3007C8.00435 10.3905 7.53068 10.3426 7.10063 10.1631C6.67058 9.98352 6.30348 9.68038 6.04584 9.29205C5.7882 8.90371 5.65159 8.44765 5.65334 7.98163C5.65259 7.67265 5.71304 7.36658 5.83121 7.08109C5.94937 6.7956 6.12291 6.53633 6.3418 6.31826C6.56069 6.10019 6.8206 5.92763 7.10653 5.81053C7.39247 5.69344 7.69876 5.63413 8.00773 5.63603Z" fill="white"/>
</svg>
