<svg width="24" height="24" viewBox="0 0 24 24" fill="none" xmlns="http://www.w3.org/2000/svg">
<path fill-rule="evenodd" clip-rule="evenodd" d="M4.00235 0H19.9981C22.1977 0 24 1.80183 24 4.00235V19.9981C24 22.1982 22.1977 24 19.9981 24H4.00235C1.80183 24 0 22.1982 0 19.9981V4.00235C0 1.80183 1.80183 0 4.00235 0Z" fill="url(#paint0_linear_730_6520)"/>
<path fill-rule="evenodd" clip-rule="evenodd" d="M17.5846 11.9998C17.5846 10.8952 17.257 9.81545 16.6434 8.89703C16.0297 7.97862 15.1575 7.26281 14.137 6.84011C13.1165 6.41741 11.9936 6.30681 10.9102 6.5223C9.8269 6.73779 8.83178 7.26969 8.05074 8.05074C7.26969 8.83178 6.73779 9.8269 6.5223 10.9102C6.30681 11.9936 6.41741 13.1165 6.84011 14.137C7.26281 15.1575 7.97862 16.0297 8.89704 16.6434C9.81545 17.257 10.8952 17.5846 11.9998 17.5846C12.7332 17.5847 13.4595 17.4403 14.1371 17.1597C14.8147 16.8791 15.4305 16.4677 15.9491 15.9491C16.4677 15.4305 16.8791 14.8147 17.1597 14.1371C17.4403 13.4595 17.5847 12.7332 17.5846 11.9998ZM17.4788 5.65593C17.3011 5.65593 17.1273 5.70864 16.9795 5.80739C16.8317 5.90614 16.7166 6.0465 16.6485 6.21072C16.5805 6.37494 16.5627 6.55564 16.5974 6.72997C16.6321 6.9043 16.7177 7.06444 16.8433 7.19013C16.969 7.31581 17.1292 7.40141 17.3035 7.43609C17.4778 7.47076 17.6585 7.45296 17.8228 7.38494C17.987 7.31692 18.1273 7.20173 18.2261 7.05394C18.3248 6.90615 18.3775 6.73239 18.3775 6.55464C18.3776 6.43661 18.3544 6.31971 18.3093 6.21065C18.2641 6.10159 18.1979 6.00249 18.1144 5.91903C18.031 5.83556 17.9319 5.76937 17.8228 5.72422C17.7138 5.67908 17.5969 5.65587 17.4788 5.65593ZM7.43441 4.36425H16.5643C17.3779 4.36623 18.1576 4.69034 18.7328 5.26569C19.3081 5.84104 19.6321 6.6208 19.634 7.43441V16.5643C19.6329 17.3782 19.3092 18.1584 18.7338 18.734C18.1583 19.3096 17.3782 19.6336 16.5643 19.6349H7.43485C6.62109 19.633 5.8412 19.3089 5.26582 18.7334C4.69045 18.158 4.36644 17.378 4.36469 16.5643V7.43485C4.36725 6.62138 4.69153 5.84196 5.26675 5.26675C5.84196 4.69153 6.62138 4.36725 7.43485 4.36469L7.43441 4.36425ZM16.5643 3.34131H7.43485C5.18411 3.34131 3.34131 5.18411 3.34131 7.43485V16.5643C3.3441 17.6491 3.77628 18.6887 4.54336 19.4557C5.31045 20.2228 6.35003 20.655 7.43485 20.6578H16.5643C17.6494 20.6558 18.6895 20.2239 19.4568 19.4567C20.2241 18.6894 20.6561 17.6494 20.6582 16.5643V7.43485C20.6582 5.18411 18.8194 3.34131 16.5651 3.34131H16.5643ZM7.5745 11.9998C7.57442 11.1244 7.83392 10.2687 8.32019 9.54082C8.80646 8.81294 9.49766 8.24562 10.3064 7.91059C11.1151 7.57557 12.005 7.48789 12.8635 7.65864C13.7221 7.82939 14.5107 8.25091 15.1297 8.86988C15.7486 9.48886 16.1702 10.2775 16.3409 11.136C16.5117 11.9946 16.424 12.8845 16.089 13.6932C15.7539 14.5019 15.1866 15.1931 14.4587 15.6794C13.7309 16.1656 12.8751 16.4251 11.9998 16.425C10.8262 16.4247 9.70085 15.9584 8.87102 15.1285C8.0412 14.2987 7.57485 13.1733 7.5745 11.9998Z" fill="white"/>
<defs>
<linearGradient id="paint0_linear_730_6520" x1="20.0391" y1="19.2826" x2="3.61599" y2="4.40457" gradientUnits="userSpaceOnUse">
<stop stop-color="#FEC053"/>
<stop offset="0.33" stop-color="#F2203E"/>
<stop offset="0.65" stop-color="#B729A8"/>
<stop offset="1" stop-color="#5342D6"/>
</linearGradient>
</defs>
</svg>
