<svg width="24" height="24" viewBox="0 0 24 24" fill="none" xmlns="http://www.w3.org/2000/svg">
<path d="M23.9904 3.04317V20.9268C23.9748 20.9951 23.9592 21.0635 23.9448 21.1319C23.5237 22.9995 21.8432 24.0107 20.3462 23.9999C14.7541 23.9723 9.15715 23.9903 3.5638 23.9903C2.62008 23.985 1.71655 23.6076 1.04934 22.9402C0.382126 22.2727 0.00507936 21.3691 4.10735e-05 20.4254C4.10735e-05 14.8012 4.10735e-05 9.1771 4.10735e-05 3.55297C-0.00355686 2.81428 0.229308 2.09383 0.664573 1.497C1.25593 0.66813 2.07041 0.189524 3.0636 0H20.9472C21.4843 0.0954019 21.9952 0.303041 22.4466 0.609354C22.8533 0.89149 23.1994 1.25218 23.4645 1.67018C23.7297 2.08817 23.9085 2.555 23.9904 3.04317ZM12.012 21.0959H17.4638C17.729 21.0973 17.9937 21.0732 18.2543 21.0239C19.9636 20.6881 21.1139 19.2762 21.1151 17.4997C21.1151 13.8252 21.1151 10.1515 21.1151 6.47859C21.115 6.22901 21.0913 5.98001 21.0443 5.73489C20.7109 4.02677 19.2979 2.87884 17.5214 2.87884C13.8477 2.87884 10.1739 2.87884 6.50022 2.87884C6.25061 2.87826 6.00154 2.90196 5.75652 2.94961C4.95019 3.09568 4.22131 3.52171 3.69837 4.15262C3.17543 4.78352 2.89201 5.57879 2.89807 6.39822C2.88688 10.1191 2.88688 13.84 2.89807 17.5609C2.88819 18.3255 3.13483 19.0713 3.59859 19.6793C4.3183 20.6317 5.3019 21.0887 6.48822 21.0935C8.32948 21.1031 10.1707 21.0959 12.012 21.0959Z" fill="#252630"/>
<path d="M12.0068 19.7286C10.1499 19.7286 8.29347 19.7286 6.43742 19.7286C5.17673 19.7286 4.2627 18.8182 4.2627 17.5635C4.2627 13.8426 4.2627 10.1217 4.2627 6.40083C4.2627 5.16053 5.18032 4.2417 6.42182 4.2417H17.5845C18.8284 4.2417 19.7436 5.15573 19.7436 6.40083C19.7436 10.1289 19.7436 13.8574 19.7436 17.5863C19.7499 17.87 19.6986 18.152 19.5928 18.4152C19.487 18.6785 19.3289 18.9176 19.1281 19.1181C18.9273 19.3185 18.6879 19.4762 18.4245 19.5815C18.161 19.6869 17.879 19.7378 17.5953 19.731C15.7337 19.731 13.8708 19.7302 12.0068 19.7286ZM16.9008 11.9738C16.8468 9.24728 14.7309 7.09535 11.9996 7.09895C10.7169 7.11904 9.49361 7.64268 8.59366 8.55684C7.69371 9.471 7.1893 10.7024 7.1893 11.9852C7.1893 13.268 7.69371 14.4993 8.59366 15.4135C9.49361 16.3277 10.7169 16.8513 11.9996 16.8714C14.7297 16.875 16.8564 14.7231 16.9008 11.9738ZM18.3018 7.07735C18.3025 6.8038 18.222 6.53618 18.0705 6.30842C17.919 6.08065 17.7033 5.90298 17.4507 5.79791C17.1982 5.69284 16.9201 5.6651 16.6517 5.7182C16.3834 5.77131 16.1368 5.90287 15.9433 6.09622C15.7498 6.28957 15.618 6.53601 15.5647 6.80432C15.5113 7.07263 15.5388 7.35073 15.6437 7.60339C15.7485 7.85606 15.926 8.07192 16.1536 8.22363C16.3813 8.37534 16.6488 8.45607 16.9224 8.4556C17.2857 8.44825 17.6322 8.30072 17.8892 8.04386C18.1463 7.787 18.2942 7.44069 18.3018 7.07735Z" fill="#252630"/>
<path d="M12.0068 8.45563C12.7055 8.45564 13.3886 8.66302 13.9694 9.0515C14.5502 9.43999 15.0027 9.99211 15.2695 10.6379C15.5363 11.2838 15.6054 11.9942 15.4681 12.6794C15.3308 13.3645 14.9933 13.9935 14.4983 14.4867C14.0032 14.9799 13.373 15.315 12.6873 15.4498C12.0017 15.5845 11.2915 15.5127 10.6467 15.2435C10.0018 14.9742 9.45141 14.5197 9.0651 13.9375C8.67879 13.3552 8.47398 12.6714 8.47659 11.9726C8.47547 11.5093 8.56611 11.0504 8.74329 10.6223C8.92046 10.1943 9.18066 9.80554 9.50887 9.47857C9.83707 9.15159 10.2268 8.89285 10.6555 8.71728C11.0842 8.54171 11.5435 8.45278 12.0068 8.45563Z" fill="#252630"/>
</svg>
