<svg width="24" height="24" viewBox="0 0 24 24" fill="none" xmlns="http://www.w3.org/2000/svg">
<path d="M21.8348 24H2.16125C2.06284 23.9736 1.96443 23.9484 1.86722 23.9208C1.32996 23.7671 0.856818 23.4438 0.518506 22.9989C0.180194 22.5541 -0.00512678 22.0117 -0.00976562 21.4528C-0.00976562 15.1525 -0.00976562 8.85146 -0.00976562 2.54957C-0.00284572 1.87346 0.269577 1.22717 0.748715 0.750183C1.22785 0.273196 1.87528 0.00375649 2.55129 1.10107e-05C8.85112 1.10107e-05 15.1509 1.10107e-05 21.4508 1.10107e-05C21.7953 -0.00102746 22.1361 0.0714031 22.4505 0.212475C23.299 0.592989 23.7934 1.26879 23.9902 2.17146V21.849C23.9542 21.9762 23.9266 22.1058 23.8822 22.2295C23.5378 23.209 22.8333 23.7791 21.8348 24ZM15.305 12.4537V9.38682C15.305 9.24038 15.311 9.11674 15.5042 9.24638C16.565 9.96285 17.802 10.3743 19.0805 10.4359C19.3506 10.4503 19.377 10.4359 19.3782 10.1659C19.3782 9.47805 19.3782 8.79144 19.3782 8.10484C19.3782 7.51546 19.4586 7.59589 18.8597 7.53227C17.0235 7.33661 15.3926 5.6345 15.3146 3.78955C15.3038 3.54947 15.2162 3.48946 14.9917 3.49306C14.2717 3.50386 13.5396 3.49306 12.8135 3.49306C12.4307 3.49306 12.4307 3.49306 12.4307 3.88437V14.8221C12.4313 15.017 12.4204 15.2118 12.3983 15.4054C12.3213 16.0282 12.0127 16.5992 11.5339 17.0047C11.0551 17.4101 10.4412 17.6204 9.81442 17.5937C9.18821 17.5564 8.5984 17.2869 8.1603 16.8378C7.72219 16.3888 7.46728 15.7924 7.44538 15.1654C7.41298 13.5977 8.78351 12.4165 10.3653 12.6554C10.5129 12.6782 10.6317 12.7058 10.6305 12.4934C10.6305 11.6579 10.6305 10.8225 10.6305 9.987C10.6305 9.84056 10.5669 9.78294 10.4217 9.76854C9.36086 9.66993 8.29472 9.88977 7.35939 10.4C6.42406 10.9102 5.66198 11.6877 5.17045 12.6331C4.67892 13.5785 4.48025 14.649 4.5998 15.7079C4.71935 16.7668 5.15169 17.766 5.84164 18.578C6.53158 19.3899 7.44781 19.9778 8.47334 20.2666C9.49888 20.5553 10.5872 20.5318 11.5993 20.1991C12.6114 19.8663 13.5014 19.2395 14.1557 18.3984C14.81 17.5574 15.1988 16.5405 15.2726 15.4774C15.3422 14.4055 15.2786 13.336 15.305 12.4585V12.4537Z" fill="#252630"/>
</svg>
