<svg width="16" height="16" viewBox="0 0 16 16" fill="none" xmlns="http://www.w3.org/2000/svg">
<path d="M14.5631 15.9968H1.44734C1.38174 15.9792 1.31613 15.9624 1.25132 15.944C0.893148 15.8416 0.577723 15.626 0.352181 15.3294C0.12664 15.0329 0.00309256 14.6713 0 14.2987C0 10.0985 0 5.8978 0 1.69654C0.00461327 1.2458 0.186229 0.81494 0.505654 0.496948C0.825078 0.178957 1.2567 -0.000669501 1.70737 -0.00316649C5.90726 -0.00316649 10.1071 -0.00316649 14.307 -0.00316649C14.5367 -0.0038588 14.7639 0.0444282 14.9735 0.138476C15.5392 0.392152 15.8688 0.842687 16 1.44447V14.5628C15.976 14.6476 15.9576 14.734 15.928 14.8165C15.6984 15.4695 15.2287 15.8496 14.5631 15.9968ZM10.2098 8.29932V6.25471C10.2098 6.15708 10.2138 6.07465 10.3426 6.16108C11.0498 6.63872 11.8745 6.91304 12.7269 6.95412C12.9069 6.96372 12.9245 6.95412 12.9253 6.77406C12.9253 6.31553 12.9253 5.85779 12.9253 5.40005C12.9253 5.00713 12.9789 5.06075 12.5797 5.01834C11.3555 4.8879 10.2682 3.75316 10.2162 2.52319C10.209 2.36314 10.1506 2.32313 10.001 2.32553C9.52095 2.33273 9.0329 2.32553 8.54885 2.32553C8.29363 2.32553 8.29363 2.32553 8.29363 2.58641V9.87819C8.29401 10.0081 8.2868 10.138 8.27203 10.2671C8.22073 10.6823 8.015 11.0629 7.6958 11.3333C7.3766 11.6036 6.96733 11.7438 6.54946 11.7259C6.13198 11.7011 5.73878 11.5214 5.44671 11.222C5.15464 10.9227 4.98469 10.5251 4.9701 10.1071C4.9485 9.06195 5.86218 8.27451 6.91669 8.43376C7.0151 8.44897 7.09431 8.46737 7.09351 8.32573C7.09351 7.76876 7.09351 7.21179 7.09351 6.65483C7.09351 6.5572 7.05111 6.51879 6.9543 6.50918C6.24708 6.44344 5.53632 6.59 4.91277 6.93015C4.28922 7.2703 3.78116 7.78861 3.45348 8.41889C3.12579 9.04917 2.99334 9.76283 3.07304 10.4687C3.15274 11.1747 3.44097 11.8408 3.90093 12.3821C4.3609 12.9235 4.97172 13.3154 5.65541 13.5079C6.3391 13.7004 7.06464 13.6847 7.73938 13.4629C8.41413 13.2411 9.00747 12.8231 9.44365 12.2625C9.87983 11.7018 10.139 11.0238 10.1882 10.3151C10.2346 9.60051 10.1922 8.8875 10.2098 8.30252V8.29932Z" fill="white"/>
</svg>
