<svg width="24" height="24" viewBox="0 0 24 24" fill="none" xmlns="http://www.w3.org/2000/svg">
<g clip-path="url(#clip0_70_1500)">
<path d="M22.2258 0.107095C22.1036 0.0635723 21.972 0.0352093 21.8454 0H2.1727C1.18782 0.222992 0.485595 0.777538 0.136925 1.74286C0.0462072 1.99272 -0.000131949 2.25653 2.82199e-07 2.52235C2.82199e-07 8.83687 0.000978317 15.152 0.00293439 21.4679C0.00293439 22.8327 1.16777 23.9976 2.53311 23.9985C8.84796 24.0028 15.1626 24.0028 21.4772 23.9985C22.5985 23.9985 23.6024 23.2161 23.9222 22.1212C23.9506 22.0234 23.9755 21.9256 24.002 21.8278V2.15461C23.7741 1.15555 23.2068 0.451363 22.2258 0.107095Z" fill="black"/>
<path d="M7.87019 17.1701L7.94648 17.2439C7.95137 17.2654 7.95528 17.287 7.98609 17.2816C7.9768 17.3163 8.00076 17.3378 8.01836 17.3618C8.62475 18.1868 9.74606 18.5961 10.7456 18.3569C11.998 18.0577 12.8137 17.0058 12.8146 15.6815C12.8173 11.6781 12.8173 7.67467 12.8146 3.67124C12.8146 3.52454 12.845 3.47955 13.0005 3.48151C13.6362 3.49031 14.2675 3.48151 14.9013 3.48151C14.9086 3.48772 14.9166 3.49298 14.9252 3.49715C15.0651 4.27958 15.4143 4.96421 15.936 5.55983C16.0964 5.74272 16.2436 5.94518 16.4769 6.04885C16.4637 6.08504 16.4867 6.08895 16.5131 6.08993V6.08699C16.5082 6.11389 16.5248 6.12269 16.5468 6.12709L16.6886 6.26988C16.6965 6.29189 16.7038 6.31438 16.7351 6.31047H16.7307C16.9116 6.59655 17.1659 6.8122 17.4276 7.0171C17.9899 7.45722 18.6168 7.76139 19.3274 7.87728C19.3308 7.8836 19.3348 7.88965 19.3391 7.89538C19.3391 8.54186 19.3323 9.18785 19.3391 9.83384C19.3391 9.97077 19.3068 10.0079 19.1685 10.003C17.6344 9.94827 16.2407 9.48713 14.9932 8.5888C14.9482 8.55604 14.914 8.49345 14.8353 8.50665C14.8353 8.57511 14.8353 8.64211 14.8353 8.70861C14.8382 10.7514 14.8418 12.7939 14.846 14.836C14.8532 15.2263 14.8204 15.6163 14.7482 15.9999C13.9858 19.7076 9.88837 21.5659 6.55718 19.7565C6.37135 19.6553 6.20851 19.5159 6.00997 19.4377C6.00997 19.4049 5.98796 19.3966 5.96107 19.3922L5.79089 19.2323C5.79169 19.2296 5.79191 19.2268 5.79154 19.224C5.79117 19.2213 5.79021 19.2186 5.78872 19.2162C5.78724 19.2139 5.78527 19.2119 5.78295 19.2103C5.78062 19.2088 5.77799 19.2078 5.77524 19.2073L5.76448 19.1956L5.73905 19.1648L5.72976 19.156C5.72292 19.1374 5.71314 19.1237 5.68966 19.1306L5.69504 19.1218C5.67636 19.0844 5.65562 19.0482 5.63294 19.0132C5.06267 18.2395 4.70826 17.3282 4.606 16.3725C4.35709 14.1509 5.56741 11.9136 7.57091 10.9053C8.35588 10.5078 9.22083 10.2936 10.1006 10.2788C10.1048 10.2848 10.1096 10.2904 10.1148 10.2955C10.1148 10.9601 10.1084 11.6246 10.1123 12.2887C10.1123 12.4105 10.0889 12.4442 9.96563 12.4095C9.63144 12.3121 9.28024 12.2876 8.93576 12.3376C7.88829 12.497 7.144 13.0584 6.77528 14.0492C6.40656 15.0399 6.62026 15.9426 7.3176 16.729C7.46431 16.8948 7.61933 17.063 7.84183 17.1373C7.83058 17.1613 7.84916 17.1647 7.87019 17.1701Z" fill="white"/>
<path d="M6.00994 19.4368C6.20848 19.5151 6.37132 19.6544 6.55715 19.7557C9.88833 21.5655 13.9858 19.7072 14.7453 15.9946C14.8174 15.611 14.8502 15.221 14.8431 14.8308C14.8375 12.7883 14.8339 10.7458 14.8323 8.70337C14.8323 8.63687 14.8323 8.56987 14.8323 8.50141C14.911 8.48821 14.9453 8.55031 14.9903 8.58356C16.2377 9.48189 17.6309 9.94303 19.1655 9.9978C19.3039 10.0027 19.3376 9.96553 19.3362 9.8286C19.3303 9.18261 19.3362 8.53662 19.3362 7.89014C19.5699 7.93222 19.8067 7.95512 20.0443 7.9586C20.1489 7.9586 20.1763 7.99528 20.1758 8.09699C20.1719 8.96891 20.1704 9.84034 20.1758 10.7123C20.1758 10.8462 20.1122 10.8404 20.0208 10.8374C18.4804 10.7885 17.0813 10.3259 15.8289 9.42516C15.7869 9.39484 15.7541 9.34496 15.6719 9.34154C15.6719 9.39484 15.6719 9.44668 15.6719 9.49852C15.6895 11.5646 15.7008 13.6312 15.7272 15.6978C15.7451 17.0425 15.271 18.3474 14.3941 19.367C13.5172 20.3866 12.2979 21.0505 10.9656 21.234C9.06972 21.498 7.44471 20.921 6.09503 19.5654C6.06079 19.5297 5.99967 19.5053 6.00994 19.4368Z" fill="#EE0244"/>
<path d="M14.9007 3.47984C14.2649 3.47984 13.6331 3.48913 12.9999 3.47984C12.8443 3.47984 12.814 3.52092 12.814 3.66958C12.817 7.673 12.817 11.6764 12.814 15.6798C12.814 17.0041 11.9974 18.056 10.745 18.3553C9.74544 18.5944 8.62413 18.1851 8.01775 17.3601C8.00014 17.3362 7.97618 17.3146 7.98547 17.2799C8.19624 17.3523 8.40309 17.4403 8.61875 17.4936C9.01232 17.5962 9.42423 17.6069 9.82258 17.5247C10.2209 17.4426 10.595 17.2698 10.9158 17.0198C11.2367 16.7698 11.4956 16.4493 11.6727 16.0831C11.8497 15.7169 11.9401 15.3149 11.9367 14.9082C11.9431 12.647 11.9397 10.3857 11.9402 8.12453C11.9402 6.36407 11.939 4.60262 11.9367 2.84021C11.9367 2.68421 11.9666 2.6358 12.1323 2.63775C12.973 2.64802 13.8146 2.64558 14.6557 2.63775C14.7887 2.63775 14.8307 2.66758 14.8342 2.80695C14.8395 3.0319 14.8767 3.25636 14.9007 3.47984Z" fill="#09FDF7"/>
<path d="M10.1004 10.276C9.22046 10.2914 8.3555 10.5065 7.57073 10.9048C5.56576 11.9156 4.3569 14.1529 4.61022 16.3774C4.71248 17.3331 5.06689 18.2445 5.63715 19.0181C5.65984 19.0532 5.68057 19.0894 5.69926 19.1267C5.62004 19.1712 5.59265 19.092 5.55255 19.0577C4.21998 17.8352 3.59061 16.3217 3.7158 14.5182C3.8894 12.0208 5.86992 9.90236 8.34827 9.52093C8.88466 9.43907 9.42942 9.42724 9.96887 9.48572C10.0774 9.49745 10.1156 9.5312 10.1107 9.64122C10.1014 9.85004 10.1033 10.0632 10.1004 10.276Z" fill="#0AFDF7"/>
<path d="M7.83994 17.1352C7.61743 17.0609 7.4629 16.8907 7.31571 16.7269C6.61837 15.942 6.40614 15.0363 6.77339 14.0471C7.14064 13.0578 7.88639 12.4944 8.93387 12.3355C9.27835 12.2855 9.62955 12.31 9.96374 12.4074C10.0889 12.4421 10.1129 12.4074 10.1104 12.2866C10.1065 11.6225 10.1104 10.9579 10.1129 10.2934C10.3696 10.2723 10.6239 10.3051 10.8787 10.3286C10.9501 10.3354 10.9877 10.3555 10.9873 10.4376C10.9873 11.3819 10.9873 12.3267 10.9873 13.2857C10.6331 13.185 10.264 13.1469 9.89674 13.1732C8.04777 13.3248 6.92988 15.3175 7.76854 16.9709C7.79641 17.0232 7.84238 17.0692 7.83994 17.1352Z" fill="#EE0245"/>
<path d="M16.4765 6.0478C16.2432 5.94364 16.096 5.74119 15.9356 5.55879C15.4143 4.96316 15.0647 4.2805 14.9248 3.49611C15.1498 3.49269 15.3747 3.49024 15.6001 3.48438C15.6681 3.48438 15.6979 3.50442 15.7004 3.5768C15.717 4.46632 15.9904 5.27369 16.4769 6.01308C16.4823 6.02091 16.4769 6.03607 16.4765 6.0478Z" fill="#EE0245"/>
<path d="M19.3237 7.87312C18.6132 7.75723 17.9863 7.45355 17.4239 7.01294C17.1623 6.80804 16.908 6.59239 16.7271 6.30631C16.7896 6.29702 16.8249 6.3469 16.8694 6.37526C17.5589 6.82566 18.3596 7.07664 19.1829 7.10048C19.3017 7.10439 19.3404 7.13617 19.334 7.25501C19.3228 7.45942 19.3262 7.66627 19.3237 7.87312Z" fill="#0AFDF7"/>
<path d="M16.511 6.08674C16.4846 6.08674 16.4621 6.08185 16.4748 6.04566C16.5081 6.04077 16.513 6.06082 16.511 6.08674Z" fill="#EE0245"/>
<path d="M16.5429 6.12375C16.5209 6.11935 16.5043 6.11054 16.5092 6.08365C16.5143 6.08314 16.5195 6.0839 16.5243 6.08584C16.529 6.08779 16.5333 6.09087 16.5366 6.09482C16.5399 6.09876 16.5422 6.10346 16.5433 6.1085C16.5444 6.11354 16.5443 6.11877 16.5429 6.12375Z" fill="#EE0245"/>
<path d="M16.731 6.30817C16.6997 6.31208 16.6924 6.28958 16.6846 6.26758C16.711 6.26758 16.7305 6.27638 16.731 6.30817Z" fill="#0AFDF7"/>
<path d="M7.87004 17.17C7.84901 17.1666 7.83043 17.1612 7.83825 17.1328C7.86368 17.1323 7.87297 17.146 7.87004 17.17Z" fill="#EE0245"/>
<path d="M7.98639 17.2813C7.95558 17.2867 7.95167 17.2652 7.94678 17.2437C7.97123 17.2446 7.99323 17.2481 7.98639 17.2813Z" fill="#09FDF7"/>
<path d="M5.69287 19.1317C5.71634 19.1248 5.72613 19.1385 5.73297 19.1571L5.69238 19.162L5.69287 19.1317Z" fill="#0AFDF7"/>
<path d="M5.7422 19.166L5.76763 19.1968L5.73145 19.1905L5.7422 19.166Z" fill="#0AFDF7"/>
<path d="M5.77836 19.2085C5.78112 19.2089 5.78374 19.21 5.78607 19.2115C5.78839 19.213 5.79036 19.2151 5.79185 19.2174C5.79333 19.2198 5.79429 19.2224 5.79466 19.2252C5.79503 19.228 5.79481 19.2308 5.79401 19.2334C5.78863 19.2334 5.78227 19.2378 5.77836 19.2359C5.77617 19.2343 5.77437 19.2323 5.7731 19.2299C5.77183 19.2275 5.77112 19.2249 5.77103 19.2222C5.77054 19.2183 5.77592 19.2134 5.77836 19.2085Z" fill="#0AFDF7"/>
<path d="M5.96582 19.3936C5.99174 19.398 6.01472 19.4063 6.01472 19.439C5.97658 19.4439 5.96582 19.4214 5.96582 19.3936Z" fill="#EE0244"/>
</g>
<defs>
<clipPath id="clip0_70_1500">
<rect width="24" height="24" fill="white"/>
</clipPath>
</defs>
</svg>
