<svg width="179" height="147" viewBox="0 0 179 147" fill="none" xmlns="http://www.w3.org/2000/svg">
<path d="M152.762 139V141.931H155.692H172.864H175.794V139V8.49874V5.56818H172.864H160.844H158.192L157.928 8.20714C157.088 16.6002 155.226 20.9755 151.658 23.5518C147.862 26.2938 141.451 27.5473 129.936 27.5473H124.784H121.854V30.4779V43.8715V46.802H124.784H152.762V139ZM3.37218 73.7494C3.37218 94.4663 8.54869 111.894 18.0164 124.215C27.5394 136.609 41.2742 143.648 57.8164 143.648C74.3587 143.648 88.0934 136.609 97.6164 124.215C107.084 111.894 112.261 94.4663 112.261 73.7494C112.261 53.0324 107.084 35.6051 97.6164 23.2834C88.0934 10.8899 74.3587 3.85106 57.8164 3.85106C41.2742 3.85106 27.5394 10.8899 18.0164 23.2834C8.54869 35.6051 3.37218 53.0324 3.37218 73.7494ZM88.8849 73.7494C88.8849 89.004 85.6093 101.263 80.0974 109.611C74.6451 117.868 67.013 122.333 57.8164 122.333C48.6198 122.333 40.9877 117.868 35.5354 109.611C30.0235 101.263 26.7479 89.004 26.7479 73.7494C26.7479 58.4948 30.0235 46.2356 35.5354 37.888C40.9877 29.6305 48.6198 25.1663 57.8164 25.1663C67.013 25.1663 74.6451 29.6305 80.0974 37.888C85.6093 46.2356 88.8849 58.4948 88.8849 73.7494Z" stroke="#FF9900" stroke-opacity="0.25" stroke-width="5.86111"/>
</svg>
