<svg width="220" height="147" viewBox="0 0 220 147" fill="none" xmlns="http://www.w3.org/2000/svg">
<path d="M214.075 119.929H156.125L177.57 100.656L177.571 100.654C201.602 79.0267 213.571 62.7936 213.571 44.5583C213.571 32.6225 209.053 22.379 201.159 15.1392C193.285 7.91739 182.24 3.85106 169.429 3.85106C155.944 3.85106 144.229 7.99495 135.545 15.709C126.853 23.4301 121.412 34.5387 120.149 48.0636L119.907 50.6598L122.457 51.2024L138.598 54.6366L141.891 55.3373L142.131 51.979C142.782 42.8664 145.682 36.133 150.123 31.6916C154.541 27.2739 160.783 24.8228 168.743 24.8228C175.293 24.8228 180.625 26.9962 184.303 30.5638C187.973 34.1242 190.195 39.2636 190.195 45.5886C190.195 56.9709 183.498 68.2386 165.73 84.6406C165.728 84.6425 165.726 84.6443 165.725 84.6461L120.744 125.849L119.793 126.721V128.01V139V141.931H122.724H214.075H217.005V139V122.859V119.929H214.075ZM3.37218 73.7494C3.37218 94.4663 8.54869 111.894 18.0164 124.215C27.5394 136.609 41.2742 143.648 57.8164 143.648C74.3587 143.648 88.0934 136.609 97.6164 124.215C107.084 111.894 112.261 94.4663 112.261 73.7494C112.261 53.0324 107.084 35.6051 97.6164 23.2834C88.0934 10.8899 74.3587 3.85106 57.8164 3.85106C41.2742 3.85106 27.5394 10.8899 18.0164 23.2834C8.54869 35.6051 3.37218 53.0324 3.37218 73.7494ZM88.8849 73.7494C88.8849 89.004 85.6093 101.263 80.0974 109.611C74.6451 117.868 67.013 122.333 57.8164 122.333C48.6198 122.333 40.9877 117.868 35.5354 109.611C30.0235 101.263 26.7479 89.004 26.7479 73.7494C26.7479 58.4948 30.0235 46.2356 35.5354 37.888C40.9877 29.6305 48.6198 25.1663 57.8164 25.1663C67.013 25.1663 74.6451 29.6305 80.0974 37.888C85.6093 46.2356 88.8849 58.4948 88.8849 73.7494Z" stroke="#FF9900" stroke-opacity="0.25" stroke-width="5.86111"/>
</svg>
