<svg width="220" height="147" viewBox="0 0 220 147" fill="none" xmlns="http://www.w3.org/2000/svg">
<path d="M117.753 110.747L115.558 112.098L116.618 114.448C125.075 133.2 143.428 143.648 166.339 143.648C194.833 143.648 216.662 124.034 216.662 97.4456C216.662 74.9992 201.313 58.2336 179.912 56.2487L212.063 22.8957L212.884 22.0444V20.8619V8.49862V5.56806H209.953H124.784H121.854V8.49862V24.2961V27.2267H124.784H180.114L144.983 64.1746L143.049 66.2082L144.997 68.2281L154.27 77.844L155.968 79.6057L158.005 78.2482C161.55 75.8846 166.105 74.6193 171.49 74.6193C178.168 74.6193 183.556 76.933 187.279 80.8034C191.011 84.6835 193.286 90.355 193.286 97.4456C193.286 105.522 190.616 111.717 185.966 115.92C181.279 120.157 174.241 122.676 164.965 122.676C157.838 122.676 151.971 121.141 147.17 118.106C142.371 115.074 138.417 110.404 135.342 103.769L133.955 100.777L131.147 102.505L117.753 110.747ZM3.37218 73.7493C3.37218 94.4662 8.54869 111.894 18.0164 124.215C27.5394 136.609 41.2742 143.648 57.8164 143.648C74.3587 143.648 88.0934 136.609 97.6164 124.215C107.084 111.894 112.261 94.4662 112.261 73.7493C112.261 53.0323 107.084 35.605 97.6164 23.2833C88.0934 10.8898 74.3587 3.85094 57.8164 3.85094C41.2742 3.85094 27.5394 10.8898 18.0164 23.2833C8.54869 35.605 3.37218 53.0323 3.37218 73.7493ZM88.8849 73.7493C88.8849 89.0039 85.6093 101.263 80.0974 109.611C74.6451 117.868 67.013 122.332 57.8164 122.332C48.6198 122.332 40.9877 117.868 35.5354 109.611C30.0235 101.263 26.7479 89.0039 26.7479 73.7493C26.7479 58.4947 30.0235 46.2355 35.5354 37.8878C40.9877 29.6303 48.6198 25.1662 57.8164 25.1662C67.013 25.1662 74.6451 29.6303 80.0974 37.8878C85.6093 46.2355 88.8849 58.4947 88.8849 73.7493Z" stroke="#FF9900" stroke-opacity="0.25" stroke-width="5.86111"/>
</svg>
