<svg width="230" height="147" viewBox="0 0 230 147" fill="none" xmlns="http://www.w3.org/2000/svg">
<path d="M226.621 90.9205V87.9899H223.69H204.985V8.49862V5.56806H202.055H181.449H179.955L179.077 6.77784L118.291 90.5734L117.733 91.3432V92.2942V105.688V108.618H120.663H181.953V139V141.93H184.883H202.055H204.985V139V108.618H223.69H226.621V105.688V90.9205ZM3.37218 73.7493C3.37218 94.4662 8.54869 111.894 18.0164 124.215C27.5394 136.609 41.2742 143.648 57.8164 143.648C74.3587 143.648 88.0934 136.609 97.6164 124.215C107.084 111.894 112.261 94.4662 112.261 73.7493C112.261 53.0323 107.084 35.605 97.6164 23.2833C88.0934 10.8898 74.3587 3.85094 57.8164 3.85094C41.2742 3.85094 27.5394 10.8898 18.0164 23.2833C8.54869 35.605 3.37218 53.0323 3.37218 73.7493ZM88.8849 73.7493C88.8849 89.0039 85.6093 101.263 80.0974 109.611C74.6451 117.868 67.013 122.332 57.8164 122.332C48.6198 122.332 40.9877 117.868 35.5354 109.611C30.0235 101.263 26.7479 89.0039 26.7479 73.7493C26.7479 58.4947 30.0235 46.2355 35.5354 37.8878C40.9877 29.6303 48.6198 25.1662 57.8164 25.1662C67.013 25.1662 74.6451 29.6303 80.0974 37.8878C85.6093 46.2355 88.8849 58.4947 88.8849 73.7493ZM181.953 36.4286V87.9899H144.606L181.953 36.4286Z" stroke="#FF9900" stroke-opacity="0.25" stroke-width="5.86111"/>
</svg>
