<svg width="225" height="147" viewBox="0 0 225 147" fill="none" xmlns="http://www.w3.org/2000/svg">
<path d="M123.412 114.302L121.315 115.816L122.557 118.085C131.027 133.552 148.221 143.648 169.429 143.648C184.484 143.648 197.419 138.802 206.62 130.29C215.838 121.764 221.126 109.722 221.126 95.7284C221.126 68.3231 200.896 48.4961 173.55 48.4961C164.985 48.4961 157.517 50.4008 151.277 54.3075L153.577 27.2267H208.58H211.51V24.2961V8.49862V5.56806H208.58H137.147H134.458L134.228 8.24793L128.389 76.246L128.187 78.6021L130.447 79.2976L143.841 83.4187L146.083 84.1087L147.247 82.0717C152.165 73.4654 160.749 68.7811 171.49 68.7811C179.743 68.7811 186.336 71.5441 190.865 76.1477C195.398 80.7567 198.094 87.4481 198.094 95.7284C198.094 103.934 195.192 110.605 190.296 115.235C185.387 119.878 178.248 122.676 169.429 122.676C156.717 122.676 145.343 115.661 140.041 106.303L138.427 103.457L135.775 105.373L123.412 114.302ZM3.37218 73.7493C3.37218 94.4662 8.54869 111.894 18.0164 124.215C27.5394 136.609 41.2742 143.648 57.8164 143.648C74.3587 143.648 88.0934 136.609 97.6164 124.215C107.084 111.894 112.261 94.4662 112.261 73.7493C112.261 53.0323 107.084 35.605 97.6164 23.2833C88.0934 10.8898 74.3587 3.85094 57.8164 3.85094C41.2742 3.85094 27.5394 10.8898 18.0164 23.2833C8.54869 35.605 3.37218 53.0323 3.37218 73.7493ZM88.8849 73.7493C88.8849 89.0039 85.6093 101.263 80.0974 109.611C74.6451 117.868 67.013 122.332 57.8164 122.332C48.6198 122.332 40.9877 117.868 35.5354 109.611C30.0235 101.263 26.7479 89.0039 26.7479 73.7493C26.7479 58.4947 30.0235 46.2355 35.5354 37.8878C40.9877 29.6303 48.6198 25.1662 57.8164 25.1662C67.013 25.1662 74.6451 29.6303 80.0974 37.8878C85.6093 46.2355 88.8849 58.4947 88.8849 73.7493Z" stroke="#FF9900" stroke-opacity="0.25" stroke-width="5.86111"/>
</svg>
