<svg width="233" height="147" viewBox="0 0 233 147" fill="none" xmlns="http://www.w3.org/2000/svg">
<path d="M225.699 27.117L227.641 25.2891L226.004 23.1838C215.719 9.96011 199.665 3.85094 183.51 3.85094C163.27 3.85094 148.978 12.7779 139.865 26.3548C130.85 39.7884 127.005 57.5952 127.005 75.4664C127.005 92.469 130.588 109.415 139.085 122.205C147.68 135.144 161.203 143.648 180.419 143.648C206.45 143.648 230.055 124.775 230.055 97.1021C230.055 83.4445 224.932 72.3298 216.374 64.656C207.853 57.0147 196.129 52.9606 183.166 52.9606C169.512 52.9606 157.318 57.8706 148.818 66.8759C149.409 57.0586 151.637 47.4279 156.074 39.8586C161.433 30.717 170.043 24.4793 183.51 24.4793C194.291 24.4793 203.34 28.8713 209.629 37.6759L211.579 40.406L214.022 38.1066L225.699 27.117ZM3.37218 73.7493C3.37218 94.4662 8.54869 111.894 18.0164 124.215C27.5394 136.609 41.2742 143.648 57.8164 143.648C74.3587 143.648 88.0934 136.609 97.6164 124.215C107.084 111.894 112.261 94.4662 112.261 73.7493C112.261 53.0323 107.084 35.605 97.6164 23.2833C88.0934 10.8898 74.3587 3.85094 57.8164 3.85094C41.2742 3.85094 27.5394 10.8898 18.0164 23.2833C8.54869 35.605 3.37218 53.0323 3.37218 73.7493ZM88.8849 73.7493C88.8849 89.0039 85.6093 101.263 80.0974 109.611C74.6451 117.868 67.013 122.332 57.8164 122.332C48.6198 122.332 40.9877 117.868 35.5354 109.611C30.0235 101.263 26.7479 89.0039 26.7479 73.7493C26.7479 58.4947 30.0235 46.2355 35.5354 37.8878C40.9877 29.6303 48.6198 25.1662 57.8164 25.1662C67.013 25.1662 74.6451 29.6303 80.0974 37.8878C85.6093 46.2355 88.8849 58.4947 88.8849 73.7493ZM207.71 98.1324C207.71 112.989 195.318 123.019 180.419 123.019C172.486 123.019 165.953 120.411 161.421 116.03C156.899 111.659 154.158 105.322 154.158 97.4456C154.158 82.9807 166.151 73.2456 181.449 73.2456C189.066 73.2456 195.623 75.7004 200.245 79.9433C204.838 84.1604 207.71 90.313 207.71 98.1324Z" stroke="#FF9900" stroke-opacity="0.25" stroke-width="5.86111"/>
</svg>
