<svg width="142" height="83" viewBox="0 0 142 83" fill="none" xmlns="http://www.w3.org/2000/svg">
<path d="M90.0352 24.5L85.5352 15.5L96.5352 11L110.035 8L118.535 14L125.535 19.5L133.535 24.5L126.535 40.5H108.535L94.5352 35.5L92.5352 29L90.0352 24.5Z" fill="#252630"/>
<path d="M141.361 27.4359C141.101 28.2947 140.639 29.097 140.946 30.0502C140.957 30.1502 140.943 30.2514 140.905 30.3446C140.868 30.4378 140.807 30.5199 140.729 30.5835C139.587 30.9751 140.21 31.7066 140.37 32.3389C140.432 32.5805 140.473 32.8267 140.493 33.0751L122.56 29.6397C122.549 29.5693 122.549 29.4976 122.56 29.4273C122.688 28.7525 122.796 28.0682 122.919 27.3839C122.966 27.1338 122.886 27.0253 122.617 27.0914C122.254 27.181 121.886 27.2801 121.517 27.3462C121.412 27.3576 121.314 27.4069 121.242 27.485C121.17 27.5631 121.129 27.6647 121.126 27.7709C121.06 28.2428 120.961 28.7147 120.885 29.1866C120.878 29.2285 120.867 29.2696 120.852 29.3093L118.54 28.8657C118.54 28.7383 118.587 28.6062 118.606 28.4788C118.686 28.0069 118.667 28.0069 118.233 28.106L116.567 28.4929L112.849 27.7851L124.807 25.0197C125.309 24.9315 125.772 24.6901 126.132 24.3285C126.492 23.9669 126.731 23.5029 126.817 23C126.903 22.4971 126.831 21.98 126.611 21.5196C126.391 21.0591 126.035 20.6779 125.59 20.4281L124.481 19.7155L111.112 11.0702C110.614 10.751 110.065 10.521 109.489 10.3907C108.9 10.3126 108.302 10.3414 107.724 10.4756L90.8059 14.383C90.3258 14.4864 89.8876 14.731 89.5476 15.0852C89.2075 15.4395 88.9811 15.8873 88.8975 16.3712C88.8138 16.8551 88.8766 17.3529 89.0779 17.8009C89.2792 18.2488 89.6098 18.6263 90.0272 18.8849L99.9372 25.2887L95.9402 24.5478C95.6948 24.3826 95.4683 24.2269 95.1946 24.0759C94.8595 23.8588 94.8218 23.873 94.751 24.2741C94.751 24.2741 94.751 24.3118 94.751 24.3307L65.8893 18.7858C66.4818 17.773 67.2195 16.8525 68.0789 16.0535C68.8493 15.3862 69.4085 14.5089 69.6881 13.5288C69.9483 12.5664 70.5617 11.7374 71.4058 11.207C72.6909 10.257 74.066 9.43507 75.5114 8.75314C75.9281 8.60509 76.2808 8.31743 76.5096 7.93897C76.7384 7.56051 76.8292 7.11456 76.7667 6.67676C76.6943 5.29146 76.7069 3.90303 76.8044 2.51928C76.9177 1.14132 77.9276 0.480649 79.0177 1.24042C79.8152 1.78783 80.2871 1.49996 80.8628 0.952554C82.1087 -0.236647 82.5428 -0.321589 83.9066 0.749635C85.478 1.99074 87.3185 2.55703 89.1448 3.18466C89.9623 3.42467 90.7176 3.84017 91.358 4.40218C92.1491 5.11647 93.1346 5.57965 94.1894 5.73295C95.053 5.89812 95.9496 5.92171 96.6386 6.60125C96.9076 6.86552 97.2002 6.68148 97.488 6.5635C98.4318 6.18126 99.2671 6.31811 99.7815 7.22889C100.15 7.8754 100.725 7.72439 101.197 7.72911C101.981 7.72911 102.684 7.82821 103.255 8.67292C103.577 7.81705 103.976 6.99249 104.449 6.20957C104.71 5.71127 105.131 5.31475 105.644 5.08304C106.157 4.85133 106.733 4.79772 107.28 4.93071C107.978 5.06285 108.696 5.16666 109.394 5.27992C109.676 5.3506 109.972 5.34781 110.253 5.27181C110.534 5.19581 110.791 5.04913 110.999 4.84577C111.228 4.58297 111.539 4.40576 111.882 4.34318C112.225 4.28059 112.579 4.33633 112.886 4.50128C113.772 4.8524 114.74 4.94246 115.675 4.76083C117.539 4.52015 118.78 5.3979 119.167 7.21945C119.35 7.80444 119.605 8.36413 119.927 8.88527C120.328 9.71111 120.984 10.5181 120.206 11.5091C119.875 11.9291 120.375 12.0329 120.616 12.1037C122.457 12.6747 123.037 14.1423 123.353 15.8081C123.429 16.2092 123.514 16.6104 123.561 17.0115C123.641 17.6391 123.891 18.0025 124.608 17.9553C124.816 17.9556 125.02 18.0015 125.208 18.0895C125.395 18.1776 125.561 18.3057 125.694 18.4649C126.336 19.1775 127.048 19.1115 127.822 18.767C128.104 18.644 128.392 18.5369 128.686 18.4461C130.054 18.0449 130.465 18.2148 131.158 19.4654C131.39 19.9203 131.697 20.3334 132.064 20.6876C132.173 20.8195 132.322 20.9115 132.489 20.9491C132.656 20.9867 132.83 20.9677 132.985 20.8953C133.929 20.4233 134.646 20.8622 135.226 21.5606C135.807 22.2591 136.378 22.7829 137.359 22.6885C137.724 22.7231 138.066 22.8794 138.331 23.1321C139.105 23.6606 139.804 24.3024 140.771 24.5478C141.006 24.6121 141.211 24.7571 141.35 24.9572C141.489 25.1574 141.553 25.4 141.531 25.6426C141.552 26.2452 141.495 26.848 141.361 27.4359Z" fill="#01A0E4"/>
<path d="M140.016 36.0341C139.747 36.8694 138.558 37.2422 137.369 36.9779C136.425 36.7895 135.444 36.975 134.634 37.4953C133.824 38.0155 133.248 38.83 133.027 39.7669C132.786 40.8617 132.286 41.3242 131.102 41.3242C130.158 41.3242 129.285 41.3241 128.563 42.0745C128.31 42.2421 128.023 42.3516 127.723 42.3954C127.562 42.4426 127.374 42.3954 127.218 42.4662C125.41 43.0925 123.506 43.4007 121.593 43.3769C120.257 43.41 119.191 44.5567 118.002 45.2032C117.643 45.3967 117.737 45.8025 117.846 46.147C118.143 47.0153 118.459 47.8742 118.757 48.7378C118.955 49.3182 119.37 49.3984 119.899 49.2757C120.826 49.0465 121.775 48.9137 122.73 48.8793C124.755 48.8416 125.349 49.7429 124.453 51.4984C124.415 51.5542 124.385 51.6144 124.363 51.6777C123.849 53.8815 122.546 54.226 119.8 53.386C119.021 53.1501 118.54 53.1737 118.03 53.7777C117.722 54.1889 117.298 54.4986 116.813 54.6668C116.328 54.835 115.803 54.8541 115.307 54.7215C114.401 54.5092 113.66 54.9952 112.976 55.5238C112.673 55.7972 112.313 55.9989 111.922 56.1141C111.53 56.2293 111.118 56.255 110.715 56.1892C108.974 55.8635 108.068 54.1977 108.856 52.631C109.215 51.9137 109.201 51.3663 108.46 50.8991C108.092 50.6639 107.772 50.3613 107.516 50.0072C107.35 49.7752 107.139 49.5787 106.896 49.4296C106.653 49.2805 106.382 49.1816 106.1 49.1389C104.897 48.8982 104.637 48.1337 105.388 47.1569C105.883 46.4985 106.587 46.0264 107.384 45.8167C107.915 45.752 108.422 45.5575 108.861 45.2504C108.63 44.8115 108.262 44.8823 107.917 44.8682C106.659 44.7893 105.421 44.5172 104.246 44.0612C102.854 43.5327 102.358 42.8626 102.358 41.3336C102.358 40.7626 102.004 40.8617 101.674 40.8617C101.265 40.9192 100.874 41.0683 100.531 41.2979C100.188 41.5276 99.9009 41.8317 99.6917 42.1877C98.6913 43.6554 97.1623 44.3962 95.7938 45.3637C95.5518 45.4948 95.3533 45.6937 95.2225 45.9359C95.0918 46.1781 95.0345 46.4532 95.0576 46.7275C95.0112 47.5514 94.6772 48.333 94.1138 48.936C94.0019 49.1302 93.8322 49.2846 93.6283 49.3776C93.4244 49.4707 93.1966 49.4978 92.9765 49.4551C92.5282 49.3277 92.3914 48.9171 92.297 48.5113C92.2309 48.247 92.2215 47.9686 92.1413 47.709C91.9525 47.072 91.6174 46.7652 90.8577 46.9917C89.2674 47.4636 86.3746 45.6657 86.115 44.047C86.0804 43.8601 86.0863 43.6679 86.1325 43.4835C86.1786 43.299 86.2639 43.1267 86.3825 42.9781C86.5011 42.8295 86.6503 42.7081 86.8199 42.6222C86.9895 42.5364 87.1756 42.488 87.3656 42.4803C87.6793 42.4269 87.9762 42.301 88.2327 42.1125C88.4891 41.9241 88.698 41.6784 88.8426 41.3949C89.5647 40.2529 90.6217 39.361 91.2635 38.1388C91.5655 37.5631 92.2356 37.464 92.8916 37.5395C93.4526 37.6444 93.9949 37.832 94.5008 38.0963C94.5574 37.9831 94.6235 37.8981 94.6046 37.8792C93.4673 36.4069 93.6938 34.4343 92.7736 32.8912C92.3017 32.0937 91.7543 31.3481 92.2451 30.3476C92.3631 30.1023 92.146 29.9088 91.9053 29.805C90.7775 29.3 89.8997 28.427 88.8946 27.738C88.279 27.3034 87.5646 27.0296 86.8162 26.9414C86.0679 26.8532 85.3094 26.9535 84.6097 27.2331C83.5272 27.6606 82.3896 27.9323 81.2308 28.04C80.2491 28.1017 79.2797 28.2921 78.3475 28.6063C77.8205 28.821 77.2337 28.8379 76.6951 28.6541C76.1566 28.4702 75.7027 28.098 75.417 27.6059C75.2652 27.3231 75.0438 27.0838 74.7738 26.9104C74.5038 26.737 74.1941 26.6353 73.8738 26.6149C73.02 26.5419 72.211 26.2017 71.5615 25.6428C71.1908 25.282 70.708 25.0587 70.1931 25.0098C69.6782 24.9609 69.162 25.0893 68.7301 25.3738C67.64 25.9872 66.8424 25.4446 66.9179 24.1798C66.9935 22.9151 66.7858 21.759 65.7665 20.8765C65.5646 20.6912 65.4342 20.4408 65.398 20.1692C65.3618 19.8975 65.4221 19.6218 65.5683 19.39C65.6538 19.1915 65.7499 18.9978 65.8562 18.8096L94.7415 24.312C94.4269 26.1241 94.1123 27.9394 93.7977 29.7578C93.6488 30.4599 93.7004 31.1898 93.9465 31.864C94.1927 32.5383 94.6235 33.1297 95.1898 33.5708C98.5874 36.4517 102.856 38.1042 107.308 38.2615C109.943 38.3846 112.576 37.9737 115.048 37.0534C115.728 36.8278 116.331 36.4175 116.791 35.8683C117.251 35.319 117.55 34.6526 117.652 33.9436C117.808 33.0847 117.954 32.2305 118.124 31.3764L118.563 28.8659L120.876 29.3095C120.853 29.3644 120.819 29.4138 120.776 29.4545C120.733 29.4952 120.682 29.5262 120.625 29.5454C120.335 29.6533 120.073 29.8265 119.861 30.0516C119.648 30.2768 119.49 30.5479 119.398 30.844C119.307 31.1401 119.285 31.4532 119.334 31.7591C119.383 32.065 119.502 32.3554 119.682 32.6081C119.8 32.8015 119.752 32.8723 119.597 32.9903C119.377 33.15 119.192 33.3522 119.053 33.5849C118.914 33.8176 118.822 34.076 118.785 34.3447C118.695 34.9676 118.568 35.5858 118.469 36.2087C118.439 36.3252 118.435 36.4468 118.456 36.5651C118.477 36.6835 118.524 36.7959 118.592 36.8948C118.66 36.9937 118.749 37.0767 118.853 37.1382C118.956 37.1998 119.071 37.2385 119.191 37.2516C119.559 37.3271 119.932 37.3837 120.305 37.4498L121.31 37.6244C121.448 37.6689 121.595 37.6808 121.739 37.6592C121.882 37.6376 122.019 37.5831 122.138 37.5C122.257 37.4169 122.356 37.3074 122.426 37.18C122.496 37.0526 122.535 36.9107 122.541 36.7655C122.645 36.2087 122.744 35.6471 122.834 35.0903C122.939 34.5647 122.838 34.0187 122.551 33.566C122.395 33.3301 122.438 33.2215 122.645 33.0469C122.878 32.8672 123.068 32.6389 123.203 32.3778C123.338 32.1168 123.414 31.8294 123.426 31.5358C123.438 31.2422 123.386 30.9495 123.273 30.6783C123.16 30.407 122.989 30.1637 122.773 29.9654C122.677 29.8804 122.612 29.7658 122.589 29.6398L140.521 33.0753C140.547 34.085 140.376 35.0902 140.016 36.0341Z" fill="#FEED01"/>
<path d="M116.562 28.493L108.299 30.3806C107.527 30.57 106.724 30.5956 105.941 30.4558C105.159 30.316 104.414 30.0139 103.755 29.5689L95.9402 24.5479L99.9419 25.3123C101.49 26.3128 103.033 27.3085 104.576 28.3137C105.066 28.6474 105.622 28.8737 106.206 28.9778C106.79 29.0819 107.389 29.0614 107.964 28.9177C109.215 28.6204 110.465 28.342 111.716 28.0494L112.858 27.7898L116.562 28.493Z" fill="#FEED01"/>
<path d="M2.1963 27.8796H6.91535V51.2625H2.1963V27.8796Z" fill="#252630"/>
<path d="M30.0104 39.5687V51.2625H25.5792V40.6163C25.5792 37.7849 24.2248 36.1851 21.9502 36.1851C19.3642 36.1851 17.2736 38.0303 17.2736 40.6777V51.2625H12.8425V32.8016H16.7829L17.0518 35.5103C17.7856 34.5478 18.7369 33.7727 19.8278 33.2486C20.9187 32.7245 22.1182 32.4662 23.3282 32.4948C27.2403 32.4948 30.0104 35.3215 30.0104 39.5687Z" fill="#252630"/>
<path d="M40.7792 36.4919V45.2316C40.7792 46.954 41.6428 47.5062 43.2426 47.5062C44.2361 47.5257 45.2283 47.4227 46.1967 47.1994V51.1398C44.9112 51.4775 43.5852 51.6363 42.2563 51.6117C38.481 51.6117 36.348 49.7666 36.348 46.1943V36.4919H32.6577V32.8016H36.348L36.8199 27.8796H40.7556V32.8016H46.1967V36.4919H40.7792Z" fill="#252630"/>
<path d="M57.7678 47.8787C58.7494 47.9211 59.7281 47.744 60.6326 47.3603C61.5372 46.9766 62.3447 46.396 62.9965 45.6608L65.7666 48.3082C64.0441 50.1958 61.4581 51.569 57.7678 51.569C51.4254 51.569 48.1645 47.5059 48.1645 42.0318C48.1645 36.369 51.8595 32.4946 57.4563 32.4946C62.9351 32.4946 66.5027 36.2699 66.5027 42.0318C66.5129 42.5068 66.4717 42.9814 66.38 43.4475H52.5957C53.0251 46.2129 54.875 47.8787 57.7678 47.8787ZM52.6571 40.1867H62.0102C61.5383 37.5393 59.8583 36.0622 57.4563 36.0622C54.875 36.0622 53.1526 37.6006 52.6571 40.1867Z" fill="#252630"/>
<path d="M82.5051 32.6789L82.3824 36.86C81.4844 36.7399 80.5796 36.6784 79.6736 36.6759C76.8422 36.6759 74.8744 38.2144 74.8744 41.1071V51.2625H70.4432V32.8016H74.3789L74.629 35.6944C75.3326 34.6926 76.2751 33.8822 77.3711 33.3367C78.4671 32.7912 79.6818 32.5278 80.9053 32.5704C81.4401 32.5785 81.9741 32.6148 82.5051 32.6789Z" fill="#252630"/>
<path d="M0.535141 64.6597C0.535141 57.5198 5.08902 52.6592 11.7948 52.6592C16.7828 52.6592 20.4118 55.1225 21.7661 59.4924L17.335 61.0308C16.4714 58.1993 14.5035 56.6609 11.7334 56.6609C7.8591 56.6609 5.33441 59.7378 5.33441 64.6597C5.33441 69.5817 7.79776 72.6821 11.7334 72.6821C14.5035 72.6821 16.4525 71.1437 17.335 68.3123L21.7709 69.8035C20.4778 74.0506 16.7875 76.6367 11.7995 76.6367C5.02768 76.6367 0.535141 71.8987 0.535141 64.6597Z" fill="#252630"/>
<path d="M41.8882 72.5122V76.3299C41.3602 76.4228 40.8244 76.4639 40.2884 76.4526C38.0138 76.4526 36.8435 75.589 36.5368 73.6211C35.1824 75.4663 32.7615 76.6366 30.0717 76.6366C26.5041 76.6366 24.0407 74.48 24.0407 71.2191C24.0407 66.5426 28.4719 65.6223 31.9829 65.1882C34.3802 64.8814 35.9186 64.5747 35.9186 63.343C35.9186 62.1114 34.5642 61.1912 32.351 61.1912C31.3696 61.1929 30.3989 61.3956 29.4988 61.7868C28.5988 62.178 27.7884 62.7494 27.1175 63.4657L24.4749 60.6957C26.6666 58.629 29.5848 57.5099 32.5964 57.5811C37.2729 57.5811 40.043 59.9406 40.043 63.7158V71.4079C40.0208 71.5587 40.0341 71.7126 40.082 71.8573C40.1298 72.002 40.2109 72.1335 40.3187 72.2412C40.4264 72.349 40.5579 72.4301 40.7026 72.4779C40.8473 72.5258 41.0012 72.5391 41.152 72.5169L41.8882 72.5122ZM35.7959 69.2088V67.3212C35.0597 67.7506 34.0121 67.9347 32.4925 68.1801C30.402 68.5529 28.3681 68.8596 28.3681 70.8888C28.3681 72.3045 29.3544 73.1681 31.0155 73.1681C33.644 73.1539 35.7959 71.3418 35.7959 69.1899V69.2088Z" fill="#252630"/>
<path d="M74.6242 64.6598V76.3536H70.1977V65.6838C70.1977 62.8524 69.0274 61.2526 66.8095 61.2526C64.2281 61.2526 62.3783 63.0978 62.3783 65.7452V76.33H57.9518V65.6838C57.9518 62.8524 56.7815 61.2526 54.5635 61.2526C51.9822 61.2526 50.1371 63.0978 50.1371 65.7452V76.33H45.7059V57.8691H49.6416L49.8869 60.4504C51.18 58.6666 53.3366 57.5576 55.9792 57.5576C58.6219 57.5576 60.6558 58.8506 61.6421 61.0686C62.3256 59.9643 63.2887 59.0602 64.4339 58.4478C65.5792 57.8354 66.8659 57.5365 68.1638 57.5812C72.0429 57.5812 74.6242 60.4126 74.6242 64.6598Z" fill="#252630"/>
<path d="M97.9505 67.0993C97.9505 72.8188 94.6896 76.6365 90.013 76.6365C88.8915 76.6751 87.7761 76.4565 86.752 75.9977C85.728 75.5388 84.8225 74.8518 84.1048 73.9891V82.4834H79.6736V57.8689H83.614L83.8594 60.6342C84.5537 59.6602 85.4757 58.8707 86.5449 58.3344C87.6141 57.7982 88.7983 57.5314 89.9941 57.5574C94.8123 57.581 97.9505 61.3138 97.9505 67.0993ZM93.4579 67.0993C93.4579 63.527 91.6128 61.2524 88.6587 61.2524C85.7045 61.2524 83.9396 63.527 83.9396 67.0993C83.9396 70.6716 85.7234 72.9415 88.6587 72.9415C91.5939 72.9415 93.4579 70.6669 93.4579 67.0993Z" fill="#252630"/>
<path d="M118.813 57.8691V76.3301H114.873L114.628 73.6213C113.893 74.5827 112.941 75.3569 111.851 75.8809C110.76 76.405 109.561 76.6639 108.351 76.6368C104.411 76.6368 101.641 73.8054 101.641 69.5582V57.8691H106.072V68.5153C106.072 71.3467 107.426 72.9418 109.706 72.9418C112.287 72.9418 114.382 71.0966 114.382 68.4492V57.8691H118.813Z" fill="#252630"/>
<path d="M122.136 73.8053L124.471 70.6671C126.126 72.1463 128.284 72.9379 130.502 72.8804C132.39 72.8804 133.886 72.3282 133.886 71.1579C133.886 70.2141 133.088 69.6809 129.828 68.9447C125.028 67.7744 122.994 66.0519 122.994 63.1591C122.994 59.7756 125.949 57.5576 130.545 57.5576C133.142 57.5563 135.677 58.3519 137.808 59.8369L135.406 63.0978C133.944 61.8685 132.086 61.2127 130.177 61.2526C128.393 61.2526 127.223 61.8661 127.223 62.9137C127.223 63.9614 128.025 64.4522 130.856 65.127C136.146 66.42 138.114 67.9584 138.114 70.9739C138.114 74.5415 135.221 76.6367 130.361 76.6367C127.058 76.6367 124.103 75.5891 122.136 73.8053Z" fill="#252630"/>
</svg>
