<svg width="141" height="83" viewBox="0 0 141 83" fill="none" xmlns="http://www.w3.org/2000/svg">
<path d="M89.5 24.5L85 15.5L96 11L109.5 8L118 14L125 19.5L133 24.5L126 40.5H108L94 35.5L92 29L89.5 24.5Z" fill="#252630"/>
<path d="M140.826 27.4359C140.567 28.2947 140.104 29.097 140.411 30.0502C140.422 30.1502 140.409 30.2514 140.371 30.3446C140.333 30.4378 140.272 30.5199 140.194 30.5835C139.052 30.9751 139.675 31.7066 139.835 32.3389C139.897 32.5805 139.938 32.8267 139.958 33.0751L122.026 29.6397C122.014 29.5693 122.014 29.4976 122.026 29.4273C122.153 28.7525 122.261 28.0682 122.384 27.3839C122.431 27.1338 122.351 27.0253 122.082 27.0914C121.719 27.181 121.351 27.2801 120.983 27.3462C120.877 27.3576 120.779 27.4069 120.707 27.485C120.635 27.5631 120.594 27.6647 120.591 27.7709C120.525 28.2428 120.426 28.7147 120.35 29.1866C120.343 29.2285 120.332 29.2696 120.317 29.3093L118.005 28.8657C118.005 28.7383 118.052 28.6062 118.071 28.4788C118.151 28.0069 118.132 28.0069 117.698 28.106L116.032 28.4929L112.314 27.7851L124.272 25.0197C124.774 24.9315 125.237 24.6901 125.597 24.3285C125.957 23.9669 126.196 23.5029 126.282 23C126.368 22.4971 126.296 21.98 126.076 21.5196C125.857 21.0591 125.5 20.6779 125.055 20.4281L123.946 19.7155L110.577 11.0702C110.08 10.751 109.53 10.521 108.954 10.3907C108.365 10.3126 107.767 10.3414 107.189 10.4756L90.2711 14.383C89.791 14.4864 89.3529 14.731 89.0128 15.0852C88.6728 15.4395 88.4464 15.8873 88.3627 16.3712C88.279 16.8551 88.3418 17.3529 88.5431 17.8009C88.7444 18.2488 89.075 18.6263 89.4924 18.8849L99.4024 25.2887L95.4054 24.5478C95.16 24.3826 94.9335 24.2269 94.6598 24.0759C94.3247 23.8588 94.287 23.873 94.2162 24.2741C94.2162 24.2741 94.2162 24.3118 94.2162 24.3307L65.3545 18.7858C65.947 17.773 66.6847 16.8525 67.5441 16.0535C68.3145 15.3862 68.8737 14.5089 69.1533 13.5288C69.4136 12.5664 70.0269 11.7374 70.8711 11.207C72.1562 10.257 73.5313 9.43507 74.9766 8.75314C75.3934 8.60509 75.746 8.31743 75.9748 7.93897C76.2036 7.56051 76.2944 7.11456 76.2319 6.67676C76.1595 5.29146 76.1721 3.90303 76.2696 2.51928C76.3829 1.14132 77.3928 0.480649 78.4829 1.24042C79.2804 1.78783 79.7523 1.49996 80.328 0.952554C81.5739 -0.236647 82.008 -0.321589 83.3718 0.749635C84.9433 1.99074 86.7837 2.55703 88.61 3.18466C89.4275 3.42467 90.1828 3.84017 90.8232 4.40218C91.6143 5.11647 92.5998 5.57965 93.6546 5.73295C94.5182 5.89812 95.4148 5.92171 96.1038 6.60125C96.3728 6.86552 96.6654 6.68148 96.9532 6.5635C97.897 6.18126 98.7323 6.31811 99.2467 7.22889C99.6148 7.8754 100.191 7.72439 100.662 7.72911C101.446 7.72911 102.149 7.82821 102.72 8.67292C103.042 7.81705 103.441 6.99249 103.914 6.20957C104.176 5.71127 104.597 5.31475 105.11 5.08304C105.623 4.85133 106.198 4.79772 106.745 4.93071C107.444 5.06285 108.161 5.16666 108.859 5.27992C109.142 5.3506 109.437 5.34781 109.718 5.27181C109.999 5.19581 110.256 5.04913 110.464 4.84577C110.693 4.58297 111.004 4.40576 111.347 4.34318C111.69 4.28059 112.044 4.33633 112.351 4.50128C113.237 4.8524 114.205 4.94246 115.14 4.76083C117.004 4.52015 118.246 5.3979 118.633 7.21945C118.815 7.80444 119.07 8.36413 119.392 8.88527C119.793 9.71111 120.449 10.5181 119.671 11.5091C119.34 11.9291 119.841 12.0329 120.081 12.1037C121.922 12.6747 122.502 14.1423 122.818 15.8081C122.894 16.2092 122.979 16.6104 123.026 17.0115C123.106 17.6391 123.356 18.0025 124.074 17.9553C124.281 17.9556 124.485 18.0015 124.673 18.0895C124.86 18.1776 125.026 18.3057 125.159 18.4649C125.801 19.1775 126.513 19.1115 127.287 18.767C127.569 18.644 127.857 18.5369 128.151 18.4461C129.519 18.0449 129.93 18.2148 130.624 19.4654C130.856 19.9203 131.162 20.3334 131.53 20.6876C131.638 20.8195 131.788 20.9115 131.954 20.9491C132.121 20.9867 132.295 20.9677 132.45 20.8953C133.394 20.4233 134.111 20.8622 134.691 21.5606C135.272 22.2591 135.843 22.7829 136.824 22.6885C137.189 22.7231 137.531 22.8794 137.797 23.1321C138.571 23.6606 139.269 24.3024 140.236 24.5478C140.471 24.6121 140.676 24.7571 140.815 24.9572C140.954 25.1574 141.018 25.4 140.996 25.6426C141.017 26.2452 140.96 26.848 140.826 27.4359Z" fill="#01A0E4"/>
<path d="M139.481 36.0341C139.212 36.8694 138.023 37.2422 136.833 36.9779C135.889 36.7895 134.909 36.975 134.099 37.4953C133.289 38.0155 132.713 38.83 132.492 39.7669C132.251 40.8617 131.751 41.3242 130.567 41.3242C129.623 41.3242 128.75 41.3241 128.028 42.0745C127.775 42.2421 127.488 42.3516 127.188 42.3954C127.027 42.4426 126.838 42.3954 126.683 42.4662C124.874 43.0925 122.971 43.4007 121.058 43.3769C119.722 43.41 118.656 44.5567 117.466 45.2032C117.108 45.3967 117.202 45.8025 117.311 46.147C117.608 47.0153 117.924 47.8742 118.221 48.7378C118.42 49.3182 118.835 49.3984 119.363 49.2757C120.291 49.0465 121.24 48.9137 122.195 48.8793C124.219 48.8416 124.814 49.7429 123.917 51.4984C123.88 51.5542 123.85 51.6144 123.828 51.6777C123.313 53.8815 122.011 54.226 119.264 53.386C118.486 53.1501 118.004 53.1737 117.495 53.7777C117.187 54.1889 116.763 54.4986 116.278 54.6668C115.793 54.835 115.268 54.8541 114.772 54.7215C113.866 54.5092 113.125 54.9952 112.441 55.5238C112.138 55.7972 111.778 55.9989 111.386 56.1141C110.995 56.2293 110.583 56.255 110.18 56.1892C108.439 55.8635 107.533 54.1977 108.321 52.631C108.68 51.9137 108.665 51.3663 107.925 50.8991C107.557 50.6639 107.236 50.3613 106.981 50.0072C106.815 49.7752 106.604 49.5787 106.361 49.4296C106.118 49.2805 105.847 49.1816 105.565 49.1389C104.362 48.8982 104.102 48.1337 104.852 47.1569C105.348 46.4985 106.051 46.0264 106.849 45.8167C107.38 45.752 107.887 45.5575 108.326 45.2504C108.094 44.8115 107.726 44.8823 107.382 44.8682C106.124 44.7893 104.885 44.5172 103.71 44.0612C102.318 43.5327 101.823 42.8626 101.823 41.3336C101.823 40.7626 101.469 40.8617 101.139 40.8617C100.73 40.9192 100.339 41.0683 99.9958 41.2979C99.6526 41.5276 99.3657 41.8317 99.1565 42.1877C98.1561 43.6554 96.6271 44.3962 95.2586 45.3637C95.0166 45.4948 94.8181 45.6937 94.6873 45.9359C94.5566 46.1781 94.4993 46.4532 94.5224 46.7275C94.476 47.5514 94.142 48.333 93.5786 48.936C93.4667 49.1302 93.297 49.2846 93.0931 49.3776C92.8892 49.4707 92.6613 49.4978 92.4413 49.4551C91.993 49.3277 91.8562 48.9171 91.7618 48.5113C91.6957 48.247 91.6863 47.9686 91.606 47.709C91.4173 47.072 91.0822 46.7652 90.3225 46.9917C88.7321 47.4636 85.8394 45.6657 85.5798 44.047C85.5452 43.8601 85.5511 43.6679 85.5972 43.4835C85.6434 43.299 85.7287 43.1267 85.8473 42.9781C85.9659 42.8295 86.115 42.7081 86.2847 42.6222C86.4543 42.5364 86.6404 42.488 86.8304 42.4803C87.1441 42.4269 87.441 42.301 87.6974 42.1125C87.9539 41.9241 88.1628 41.6784 88.3074 41.3949C89.0294 40.2529 90.0865 39.361 90.7283 38.1388C91.0303 37.5631 91.7004 37.464 92.3564 37.5395C92.9174 37.6444 93.4597 37.832 93.9656 38.0963C94.0222 37.9831 94.0883 37.8981 94.0694 37.8792C92.9321 36.4069 93.1586 34.4343 92.2384 32.8912C91.7665 32.0937 91.2191 31.3481 91.7099 30.3476C91.8278 30.1023 91.6108 29.9088 91.3701 29.805C90.2422 29.3 89.3645 28.427 88.3593 27.738C87.7438 27.3034 87.0294 27.0296 86.281 26.9414C85.5327 26.8532 84.7742 26.9535 84.0744 27.2331C82.992 27.6606 81.8544 27.9323 80.6956 28.04C79.7138 28.1017 78.7444 28.2921 77.8123 28.6063C77.2853 28.821 76.6985 28.8379 76.1599 28.6541C75.6214 28.4702 75.1675 28.098 74.8817 27.6059C74.73 27.3231 74.5086 27.0838 74.2386 26.9104C73.9686 26.737 73.6589 26.6353 73.3386 26.6149C72.4848 26.5419 71.6757 26.2017 71.0263 25.6428C70.6556 25.282 70.1728 25.0587 69.6579 25.0098C69.143 24.9609 68.6268 25.0893 68.1948 25.3738C67.1047 25.9872 66.3072 25.4446 66.3827 24.1798C66.4582 22.9151 66.2506 21.759 65.2313 20.8765C65.0294 20.6912 64.899 20.4408 64.8628 20.1692C64.8266 19.8975 64.8868 19.6218 65.0331 19.39C65.1186 19.1915 65.2147 18.9978 65.3209 18.8096L94.2062 24.312C93.8916 26.1241 93.577 27.9394 93.2624 29.7578C93.1136 30.4599 93.1652 31.1898 93.4113 31.864C93.6575 32.5383 94.0883 33.1297 94.6546 33.5708C98.0521 36.4517 102.321 38.1042 106.773 38.2615C109.408 38.3846 112.04 37.9737 114.512 37.0534C115.192 36.8278 115.796 36.4175 116.256 35.8683C116.716 35.319 117.014 34.6526 117.117 33.9436C117.273 33.0847 117.419 32.2305 117.589 31.3764L118.028 28.8659L120.34 29.3095C120.318 29.3644 120.284 29.4138 120.241 29.4545C120.198 29.4952 120.146 29.5262 120.09 29.5454C119.8 29.6533 119.538 29.8265 119.325 30.0516C119.113 30.2768 118.954 30.5479 118.863 30.844C118.772 31.1401 118.75 31.4532 118.799 31.7591C118.848 32.065 118.967 32.3554 119.146 32.6081C119.264 32.8015 119.217 32.8723 119.061 32.9903C118.842 33.15 118.657 33.3522 118.518 33.5849C118.378 33.8176 118.287 34.076 118.25 34.3447C118.16 34.9676 118.033 35.5858 117.934 36.2087C117.904 36.3252 117.899 36.4468 117.921 36.5651C117.942 36.6835 117.988 36.7959 118.057 36.8948C118.125 36.9937 118.214 37.0767 118.317 37.1382C118.421 37.1998 118.536 37.2385 118.656 37.2516C119.024 37.3271 119.397 37.3837 119.769 37.4498L120.774 37.6244C120.913 37.6689 121.06 37.6808 121.203 37.6592C121.347 37.6376 121.484 37.5831 121.603 37.5C121.722 37.4169 121.821 37.3074 121.891 37.18C121.96 37.0526 122 36.9107 122.006 36.7655C122.11 36.2087 122.209 35.6471 122.299 35.0903C122.404 34.5647 122.303 34.0187 122.016 33.566C121.86 33.3301 121.902 33.2215 122.11 33.0469C122.342 32.8672 122.533 32.6389 122.668 32.3778C122.803 32.1168 122.879 31.8294 122.891 31.5358C122.903 31.2422 122.851 30.9495 122.738 30.6783C122.625 30.407 122.454 30.1637 122.237 29.9654C122.142 29.8804 122.077 29.7658 122.053 29.6398L139.986 33.0753C140.012 34.085 139.84 35.0902 139.481 36.0341Z" fill="#FEED01"/>
<path d="M116.028 28.493L107.764 30.3806C106.992 30.57 106.189 30.5956 105.406 30.4558C104.624 30.316 103.879 30.0139 103.22 29.5689L95.4053 24.5479L99.407 25.3123C100.955 26.3128 102.498 27.3085 104.041 28.3137C104.531 28.6474 105.087 28.8737 105.671 28.9778C106.255 29.0819 106.854 29.0614 107.429 28.9177C108.68 28.6204 109.931 28.342 111.181 28.0494L112.323 27.7898L116.028 28.493Z" fill="#FEED01"/>
<path d="M1.66113 27.8796H6.38018V51.2625H1.66113V27.8796Z" fill="white"/>
<path d="M29.4755 39.5687V51.2625H25.0443V40.6163C25.0443 37.7849 23.69 36.1851 21.4154 36.1851C18.8293 36.1851 16.7388 38.0303 16.7388 40.6777V51.2625H12.3076V32.8016H16.248L16.517 35.5103C17.2507 34.5478 18.202 33.7727 19.2929 33.2486C20.3838 32.7245 21.5834 32.4662 22.7933 32.4948C26.7054 32.4948 29.4755 35.3215 29.4755 39.5687Z" fill="white"/>
<path d="M40.2445 36.4919V45.2316C40.2445 46.954 41.1081 47.5062 42.7079 47.5062C43.7014 47.5257 44.6936 47.4227 45.662 47.1994V51.1398C44.3765 51.4775 43.0505 51.6363 41.7216 51.6117C37.9464 51.6117 35.8133 49.7666 35.8133 46.1943V36.4919H32.123V32.8016H35.8133L36.2852 27.8796H40.2209V32.8016H45.662V36.4919H40.2445Z" fill="white"/>
<path d="M57.2322 47.8787C58.2138 47.9211 59.1925 47.744 60.097 47.3603C61.0015 46.9766 61.8091 46.396 62.4609 45.6608L65.231 48.3082C63.5085 50.1958 60.9225 51.569 57.2322 51.569C50.8898 51.569 47.6289 47.5059 47.6289 42.0318C47.6289 36.369 51.3239 32.4946 56.9207 32.4946C62.3995 32.4946 65.9671 36.2699 65.9671 42.0318C65.9772 42.5068 65.9361 42.9814 65.8444 43.4475H52.0601C52.4895 46.2129 54.3394 47.8787 57.2322 47.8787ZM52.1214 40.1867H61.4746C61.0027 37.5393 59.3227 36.0622 56.9207 36.0622C54.3394 36.0622 52.6169 37.6006 52.1214 40.1867Z" fill="white"/>
<path d="M81.9701 32.6789L81.8474 36.86C80.9494 36.7399 80.0446 36.6784 79.1387 36.6759C76.3072 36.6759 74.3394 38.2144 74.3394 41.1071V51.2625H69.9082V32.8016H73.8439L74.094 35.6944C74.7976 34.6926 75.7401 33.8822 76.8361 33.3367C77.9321 32.7912 79.1469 32.5278 80.3703 32.5704C80.9051 32.5785 81.4391 32.6148 81.9701 32.6789Z" fill="white"/>
<path d="M0 64.6597C0 57.5198 4.55388 52.6592 11.2597 52.6592C16.2477 52.6592 19.8766 55.1225 21.231 59.4924L16.7998 61.0308C15.9362 58.1993 13.9684 56.6609 11.1983 56.6609C7.32396 56.6609 4.79927 59.7378 4.79927 64.6597C4.79927 69.5817 7.26262 72.6821 11.1983 72.6821C13.9684 72.6821 15.9173 71.1437 16.7998 68.3123L21.2357 69.8035C19.9427 74.0506 16.2524 76.6367 11.2644 76.6367C4.49253 76.6367 0 71.8987 0 64.6597Z" fill="white"/>
<path d="M41.3533 72.5122V76.3299C40.8253 76.4228 40.2895 76.4639 39.7535 76.4526C37.479 76.4526 36.3086 75.589 36.0019 73.6211C34.6475 75.4663 32.2267 76.6366 29.5368 76.6366C25.9692 76.6366 23.5059 74.48 23.5059 71.2191C23.5059 66.5426 27.937 65.6223 31.448 65.1882C33.8453 64.8814 35.3837 64.5747 35.3837 63.343C35.3837 62.1114 34.0293 61.1912 31.8161 61.1912C30.8347 61.1929 29.864 61.3956 28.964 61.7868C28.0639 62.178 27.2535 62.7494 26.5827 63.4657L23.94 60.6957C26.1317 58.629 29.0499 57.5099 32.0615 57.5811C36.7381 57.5811 39.5082 59.9406 39.5082 63.7158V71.4079C39.4859 71.5587 39.4992 71.7126 39.5471 71.8573C39.595 72.002 39.676 72.1335 39.7838 72.2412C39.8916 72.349 40.0231 72.4301 40.1678 72.4779C40.3125 72.5258 40.4664 72.5391 40.6171 72.5169L41.3533 72.5122ZM35.261 69.2088V67.3212C34.5248 67.7506 33.4772 67.9347 31.9577 68.1801C29.8671 68.5529 27.8332 68.8596 27.8332 70.8888C27.8332 72.3045 28.8195 73.1681 30.4806 73.1681C33.1091 73.1539 35.261 71.3418 35.261 69.1899V69.2088Z" fill="white"/>
<path d="M74.0892 64.6598V76.3536H69.6628V65.6838C69.6628 62.8524 68.4924 61.2526 66.2745 61.2526C63.6932 61.2526 61.8433 63.0978 61.8433 65.7452V76.33H57.4168V65.6838C57.4168 62.8524 56.2465 61.2526 54.0286 61.2526C51.4472 61.2526 49.6021 63.0978 49.6021 65.7452V76.33H45.1709V57.8691H49.1066L49.352 60.4504C50.645 58.6666 52.8016 57.5576 55.4443 57.5576C58.0869 57.5576 60.1208 58.8506 61.1071 61.0686C61.7906 59.9643 62.7537 59.0602 63.899 58.4478C65.0442 57.8354 66.3309 57.5365 67.6289 57.5812C71.5079 57.5812 74.0892 60.4126 74.0892 64.6598Z" fill="white"/>
<path d="M97.4155 67.0993C97.4155 72.8188 94.1547 76.6365 89.4781 76.6365C88.3566 76.6751 87.2412 76.4565 86.2171 75.9977C85.1931 75.5388 84.2875 74.8518 83.5699 73.9891V82.4834H79.1387V57.8689H83.0791L83.3245 60.6342C84.0188 59.6602 84.9407 58.8707 86.01 58.3344C87.0792 57.7982 88.2633 57.5314 89.4592 57.5574C94.2774 57.581 97.4155 61.3138 97.4155 67.0993ZM92.923 67.0993C92.923 63.527 91.0779 61.2524 88.1237 61.2524C85.1696 61.2524 83.4047 63.527 83.4047 67.0993C83.4047 70.6716 85.1885 72.9415 88.1237 72.9415C91.059 72.9415 92.923 70.6669 92.923 67.0993Z" fill="white"/>
<path d="M118.278 57.8691V76.3301H114.338L114.092 73.6213C113.358 74.5827 112.406 75.3569 111.315 75.8809C110.225 76.405 109.026 76.6639 107.816 76.6368C103.876 76.6368 101.105 73.8054 101.105 69.5582V57.8691H105.537V68.5153C105.537 71.3467 106.891 72.9418 109.17 72.9418C111.752 72.9418 113.847 71.0966 113.847 68.4492V57.8691H118.278Z" fill="white"/>
<path d="M121.601 73.8053L123.937 70.6671C125.591 72.1463 127.749 72.9379 129.967 72.8804C131.855 72.8804 133.351 72.3282 133.351 71.1579C133.351 70.2141 132.554 69.6809 129.293 68.9447C124.493 67.7744 122.459 66.0519 122.459 63.1591C122.459 59.7756 125.414 57.5576 130.01 57.5576C132.607 57.5563 135.142 58.3519 137.273 59.8369L134.871 63.0978C133.409 61.8685 131.551 61.2127 129.642 61.2526C127.858 61.2526 126.688 61.8661 126.688 62.9137C126.688 63.9614 127.49 64.4522 130.321 65.127C135.611 66.42 137.579 67.9584 137.579 70.9739C137.579 74.5415 134.687 76.6367 129.826 76.6367C126.523 76.6367 123.568 75.5891 121.601 73.8053Z" fill="white"/>
</svg>
